<?xml version="1.0" encoding="UTF-8" standalone="no"?>
<!-- Created with Inkscape (http://www.inkscape.org/) -->

<svg
   xmlns:dc="http://purl.org/dc/elements/1.1/"
   xmlns:cc="http://creativecommons.org/ns#"
   xmlns:rdf="http://www.w3.org/1999/02/22-rdf-syntax-ns#"
   xmlns:svg="http://www.w3.org/2000/svg"
   xmlns="http://www.w3.org/2000/svg"
   xmlns:sodipodi="http://sodipodi.sourceforge.net/DTD/sodipodi-0.dtd"
   xmlns:inkscape="http://www.inkscape.org/namespaces/inkscape"
   width="469.34149"
   height="247.15935"
   viewBox="0 0 469.3415 247.15935"
   id="svg2"
   version="1.1"
   inkscape:version="0.91 r13725"
   sodipodi:docname="logo_nigra.svg">
  <defs
     id="defs4" />
  <sodipodi:namedview
     id="base"
     pagecolor="#ffffff"
     bordercolor="#666666"
     borderopacity="1.0"
     inkscape:pageopacity="0.0"
     inkscape:pageshadow="2"
     inkscape:zoom="0.7"
     inkscape:cx="62.677496"
     inkscape:cy="204.75595"
     inkscape:document-units="px"
     inkscape:current-layer="layer1"
     showgrid="false"
     units="px"
     inkscape:window-width="1920"
     inkscape:window-height="1016"
     inkscape:window-x="1920"
     inkscape:window-y="27"
     inkscape:window-maximized="1"
     fit-margin-top="0"
     fit-margin-left="0"
     fit-margin-right="0"
     fit-margin-bottom="0" />
  <metadata
     id="metadata7">
    <rdf:RDF>
      <cc:Work
         rdf:about="">
        <dc:format>image/svg+xml</dc:format>
        <dc:type
           rdf:resource="http://purl.org/dc/dcmitype/StillImage" />
        <dc:title></dc:title>
      </cc:Work>
    </rdf:RDF>
  </metadata>
  <g
     inkscape:label="Layer 1"
     inkscape:groupmode="layer"
     id="layer1"
     transform="translate(-15.390624,-790.28669)">
    <g
       style="font-style:normal;font-weight:normal;font-size:205.21165466px;line-height:125%;font-family:sans-serif;letter-spacing:0px;word-spacing:0px;fill:#000000;fill-opacity:1;stroke:none;stroke-width:1px;stroke-linecap:butt;stroke-linejoin:miter;stroke-opacity:1"
       id="text4155">
      <path
         d="m 53.366805,905.60155 q 0,0.1002 -0.100201,3.10623 0,3.00603 -0.100201,8.01608 0,5.01005 -0.100201,11.62332 0,6.61327 -0.100201,14.02814 -0.100201,7.31467 -0.200402,15.03015 0,7.71548 -0.100201,14.92995 0,7.11427 -0.100201,13.32673 0,6.21247 0,10.62131 l 0,6.01204 q 1.402814,0.2004 2.705427,0.2004 1.402814,0 2.805628,0 4.208442,0 10.0201,-0.8016 5.911859,-0.8016 12.625326,-3.40682 6.813669,-2.70543 14.128342,-7.71548 7.41487,-5.11025 14.52915,-13.72754 8.51708,-10.2205 12.12432,-20.441 3.70743,-10.2205 3.70743,-20.441 0,-8.61729 -1.80361,-14.92995 -1.80362,-6.31267 -5.11026,-10.62131 -3.20643,-4.40884 -7.71547,-7.11427 -4.40885,-2.70543 -9.8197,-4.20844 -5.310654,-1.50302 -11.422915,-2.00402 -6.01206,-0.50101 -12.324724,-0.50101 -4.509045,0 -10.420904,1.10221 -5.911859,1.10221 -12.224522,2.80563 -6.212463,1.70342 -12.324724,3.60724 -6.112261,1.90382 -11.122311,3.60723 -4.909849,1.70342 -8.216482,2.80563 -3.306633,1.10221 -4.008041,1.10221 -1.00201,-1.00201 -1.703417,-1.90382 -0.601206,-0.7014 -1.102211,-1.30261 -0.501005,-0.60121 -0.501005,-0.70141 0,-0.2004 0.300603,-0.501 0.200402,-0.2004 0.701407,-0.50101 0.501005,-0.3006 1.503015,-0.501 -0.300603,-0.60121 -0.400804,-0.80161 0,-0.2004 0,-0.4008 0,-0.30061 0.100201,-0.60121 0.100201,-0.3006 0.901809,-0.60121 -1.503015,-0.7014 -2.104221,-1.20241 -0.601206,-0.6012 -0.801608,-0.90181 -0.100201,-0.3006 0,-0.4008 0.100201,-0.1002 0.100201,0 0,-0.3006 0.400804,-0.40081 0.400804,-0.1002 0.601206,-0.6012 0,-0.1002 0.601206,-1.30261 0.601206,-1.20242 2.505026,-2.80563 2.00402,-1.60322 5.611256,-3.30664 3.607236,-1.70341 9.719497,-3.00603 2.104221,-0.501 5.711457,-1.30261 3.607236,-0.90181 8.316683,-1.70342 4.809649,-0.8016 10.420905,-1.40281 5.611256,-0.60121 11.723517,-0.60121 16.733568,0 29.659496,5.01005 12.92593,4.90985 21.64342,13.22654 8.81769,8.31668 13.32673,19.23859 4.50905,10.92191 4.50905,22.84583 0,7.01407 -1.90382,14.42894 -1.90382,7.41488 -5.51106,14.62935 -3.50703,7.21447 -8.51708,13.92794 -5.01005,6.71347 -11.22252,12.32472 -6.21246,5.5111 -13.42693,9.7195 -7.114271,4.2084 -15.03015,6.4129 -7.91588,2.2044 -14.428945,3.1062 -6.412864,0.8016 -11.823718,0.8016 -7.214472,0 -11.723518,-0.8016 -4.509045,-0.9018 -7.01407,-1.9038 -2.404824,-1.1022 -3.306633,-2.1042 -0.801608,-1.0021 -0.801608,-1.3027 -0.601206,-0.6012 -0.601206,-1.9038 0.100201,-2.4048 0.501005,-13.82772 0.200402,-4.80964 0.400804,-12.12432 0.300603,-7.31467 0.601206,-17.63537 0.400804,-10.42091 0.901809,-24.34885 0.601206,-13.92794 1.302613,-31.96412 0,-2.10422 1.102211,-2.90583 1.202412,-0.80161 2.905829,-1.20241 1.703417,-0.4008 3.607236,-0.70141 2.00402,-0.4008 3.507035,-1.60321 0.601207,-0.50101 1.302614,-0.80161 0.801608,-0.4008 1.302613,-0.4008 0.801608,0 0.801608,0.6012 z"
         style="font-style:normal;font-variant:normal;font-weight:normal;font-stretch:normal;font-family:Oregano;-inkscape-font-specification:Oregano;fill:#000000;fill-opacity:1"
         id="path4210" />
      <path
         d="m 263.38811,1005.8026 q 0,0.4008 -0.501,1.503 -0.50101,1.1022 -1.20242,2.3046 -0.6012,1.2024 -1.40281,2.3046 -0.70141,1.002 -1.20241,1.2024 -0.3006,0.2004 -2.70543,1.1022 -2.30462,0.8016 -6.21246,2.0041 -3.90784,1.1022 -9.21849,2.4048 -5.21046,1.3026 -11.42292,2.505 -6.11226,1.1022 -13.12633,1.9038 -6.91387,0.7014 -14.12834,0.8016 -6.01206,0.2004 -11.22251,0.4008 -5.21046,0.2004 -9.7195,0.2004 -2.50503,0 -4.80965,-0.1002 -2.20442,-0.1002 -4.20844,-0.3006 -2.80563,-0.3006 -5.41085,-0.7014 -2.30463,-0.4008 -4.80965,-1.002 -2.40483,-0.6012 -4.20845,-1.6032 -0.501,-0.1002 -0.9018,-0.501 -0.80161,-0.6012 -0.70141,-1.7034 -0.90181,-0.501 -1.30261,-1.1022 -0.20041,-0.3006 -0.30061,-0.4008 0,-0.2004 0.1002,-0.501 0.1002,-0.4008 0.90181,-1.5031 -0.7014,-0.1002 -1.10221,-0.4008 -0.3006,-0.3006 -0.501,-0.7014 -0.30061,-0.4008 -0.30061,-1.002 0,-0.6012 0.20041,-1.2024 0.2004,-0.501 0.501,-1.1022 0.4008,-0.7014 1.20241,-1.4028 0,-1.3026 0.30061,-1.9038 0.1002,-0.4008 0.3006,-0.501 0.1002,-0.3006 0.80161,-0.6012 0.7014,-0.3006 1.60321,-0.501 0.90181,-0.2004 1.80362,-0.3006 1.00201,-0.1003 1.70342,0 l 0.2004,0.2004 q 0.2004,-6.61331 0.501,-14.32879 0.30061,-7.71548 0.60121,-14.32874 0.4008,-7.71548 0.80161,-15.33076 0.4008,-9.41889 1.20241,-19.8398 0.70141,-8.91789 1.70342,-20.0402 1.00201,-11.12231 2.60522,-22.64542 l -11.52311,0.2004 q -1.10221,0 -2.10422,-0.3006 -0.80161,-0.20041 -1.70342,-0.70141 -0.90181,-0.50101 -1.30261,-1.50302 -1.60322,-0.2004 -2.40483,-0.6012 -0.7014,-0.40081 -1.10221,-0.80161 -0.4008,-0.4008 -0.4008,-1.00201 0.2004,-1.10221 0.70141,-1.70342 0.501,-0.6012 2.00402,-1.40281 1.70341,-0.60121 2.40482,-1.50302 0.80161,-1.00201 1.70342,-1.20241 0.4008,-0.1002 4.70944,-0.90181 4.30865,-0.90181 10.92191,-2.00402 6.61327,-1.20241 14.82975,-2.20442 8.21648,-1.10221 16.33277,-1.60322 6.91386,-0.501 13.72753,-0.6012 6.91387,-0.1002 12.92593,-0.1002 8.21648,0 13.82774,0.2004 5.61126,0.2004 6.71347,0.501 0.7014,0.20041 1.40281,0.70141 0.50101,0.50101 1.10221,1.40281 0.60121,0.80161 1.00201,2.20443 0.80161,0.4008 1.10221,0.8016 0.40081,0.30061 0.60121,0.60121 l 0.3006,0.60121 q 0,0.6012 0,1.50301 0,0.80161 -0.2004,1.40282 -0.1002,0.2004 -0.4008,0.4008 -0.20041,0.2004 -0.60121,0.4008 -0.3006,0.20041 -0.80161,0.40081 0.1002,1.40281 0,2.20442 -0.1002,0.80161 -0.3006,1.30261 -0.2004,0.50101 -0.50101,0.80161 -0.7014,0.50101 -2.40482,0.80161 -1.60322,0.2004 -6.01206,0.2004 l -62.02442,1.30261 q -0.3006,2.90583 -0.60121,6.91387 -0.2004,3.90784 -0.501,8.41689 -0.2004,4.50904 -0.50101,9.21849 -0.2004,4.70945 -0.4008,9.11829 -0.2004,4.30864 -0.4008,8.01608 -0.20041,3.70744 -0.30061,6.11226 3.80764,-1.10221 8.41689,-1.70341 4.60924,-0.70141 8.61728,-1.10222 4.70945,-0.4008 9.3187,-0.7014 2.90583,-0.2004 5.61125,-0.2004 2.70543,0 5.21045,0 10.02011,0 15.43096,0.4008 5.51105,0.4008 6.31266,0.60121 0.60121,0.1002 1.30262,0.8016 0.7014,0.70141 1.30261,1.70342 0.6012,0.90181 1.00201,2.10422 0.501,1.10221 0.501,2.00402 0,1.70342 -0.90181,3.60724 -0.9018,1.90382 -1.50301,3.10623 -0.80161,1.30261 -2.10422,2.50502 -1.30261,1.20242 -2.20442,1.00201 -0.30061,0 -2.50503,-0.1002 -2.20442,-0.1002 -5.51105,-0.2004 -3.20644,-0.2004 -7.01407,-0.3006 -3.80764,-0.1002 -7.41488,-0.2004 -3.60723,-0.1002 -6.51306,-0.1002 -2.80563,-0.10021 -4.10824,-0.10021 -1.60322,0 -4.70945,0.30061 -2.60523,0.2004 -7.21447,0.7014 -4.60925,0.50101 -11.72352,1.40282 -0.2004,4.10824 -0.2004,8.61728 0,4.50905 0,9.5191 0,6.91387 0.2004,13.72754 0.2004,6.71346 0.70141,12.12436 l 10.8217,0 q 5.71146,0 11.32272,-0.1002 5.61125,-0.2004 10.2205,-0.501 6.71347,-0.5011 12.72553,-1.1023 6.11226,-0.6012 10.92191,-1.1022 4.80964,-0.501 8.01608,-0.7014 3.20643,-0.3006 4.00804,-0.2004 0.8016,0.2004 2.10422,0.1002 1.40281,-0.1002 2.90583,-0.3006 1.50301,-0.2004 2.90583,-0.4008 1.40281,-0.2004 2.20442,-0.4008 0.70141,-0.1002 1.60321,0.4008 0.90181,0.4008 1.70342,1.2024 0.80161,0.7014 1.30261,1.503 0.60121,0.8017 0.70141,1.2025 z"
         style="font-style:normal;font-variant:normal;font-weight:normal;font-stretch:normal;font-family:Oregano;-inkscape-font-specification:Oregano;fill:#000000;fill-opacity:1"
         id="path4212" />
      <path
         d="m 332.2262,879.54929 q 0.50101,3.50704 1.10222,9.6193 0.6012,6.11226 1.10221,13.92794 0.6012,7.81567 0.90181,17.03417 0.4008,9.21849 0.4008,18.93799 0,10.8217 -0.60121,21.84382 -0.501,10.9219 -1.80361,21.14241 -1.20242,10.1203 -3.40684,19.03818 -2.20442,8.8177 -5.51105,15.3308 -1.70342,3.3066 -4.80965,7.4148 -3.10623,4.1083 -7.61528,7.4149 -4.50904,3.3066 -10.4209,5.1103 -5.91186,1.8036 -13.22653,0.6012 -5.21046,-0.9018 -9.6193,-3.9079 -4.30864,-3.006 -7.51508,-7.4148 -3.20643,-4.3087 -5.01005,-9.5191 -1.80361,-5.3107 -1.90382,-10.5211 -0.1002,-5.91191 1.20242,-10.92196 1.30261,-5.11025 3.10623,-9.01809 1.90382,-3.90784 4.00804,-6.51306 2.10422,-2.60523 3.60723,-3.70744 1.80362,-1.30261 2.50503,-1.50301 0.80161,-0.20041 1.60322,-0.40081 1.00201,-0.2004 1.40281,-0.1002 0.501,0 0.60121,0.2004 0.2004,0.1002 0.3006,0.40081 0.1002,0.2004 0.501,0.3006 0.50101,0.2004 1.10221,0.2004 0.60121,0 1.00201,0 0.50101,0 0.60121,0.2004 0.2004,0.1002 -0.2004,0.70141 -0.2004,0.3006 0,0.4008 0.3006,0.10021 0.70141,0.20041 0.501,0 0.8016,0.2004 0.40081,0.2004 0.30061,0.6012 -0.20041,0.30061 0.1002,0.90181 0.3006,0.50101 0.80161,0.30061 1.30261,-0.30061 1.20241,-0.1002 -0.1002,0.1002 -1.00201,0.9018 -0.90181,0.70141 -2.20442,2.00402 -1.30262,1.30262 -2.30463,3.20644 -2.60522,5.11025 -3.90784,10.92191 -1.30261,5.81165 -1.30261,11.42295 0,3.7074 0.50101,7.014 0.6012,3.2065 1.70341,5.7115 1.10221,2.505 2.70543,4.1082 1.70342,1.503 3.90784,1.8036 5.11025,0.7015 9.21849,-2.6052 4.10824,-3.4068 7.31467,-9.2185 3.20644,-5.8116 5.61126,-13.3267 2.40482,-7.51508 4.00804,-15.03015 1.60322,-7.61528 2.40482,-14.52915 0.90181,-7.01407 1.20242,-11.72352 0.4008,-6.61326 0.501,-13.22653 0.2004,-6.61327 0.2004,-13.12633 0,-11.62332 -0.4008,-22.14442 -0.4008,-10.62131 -1.00201,-18.93799 -0.50101,-8.31669 -1.10221,-13.62734 -0.60121,-5.41085 -1.00201,-6.61327 -0.2004,-0.501 -0.1002,-0.8016 0.2004,-0.30061 0.6012,-0.40081 0.50101,-0.2004 1.00201,-0.1002 0.60121,0.1002 1.10221,0.3006 0.70141,0.20041 0.80161,-0.4008 0.1002,-0.70141 0.70141,-1.00201 0.501,-0.2004 1.00201,0.2004 0.501,0.40081 0.80161,0.40081 0.501,0 0.80161,-0.40081 0.4008,-0.4008 0.9018,-0.2004 0.30061,0.2004 0.60121,0.4008 0.4008,0.20041 1.20241,0 0.30061,-0.1002 0.50101,-0.4008 0.2004,-0.4008 0.4008,-0.70141 0.3006,-0.4008 0.50101,-0.501 0.3006,-0.1002 0.8016,0.3006 0.70141,0.80161 1.00201,0.90181 0.40081,0 0.50101,-0.2004 0.2004,-0.3006 0.3006,-0.60121 0.1002,-0.4008 0.30061,-0.3006 1.30261,0.60121 1.80361,1.00201 0.60121,0.4008 0.80161,1.50301 0.3006,1.10222 0.50101,3.30664 0.2004,2.20442 0.8016,6.31266 z"
         style="font-style:normal;font-variant:normal;font-weight:normal;font-stretch:normal;font-family:Oregano;-inkscape-font-specification:Oregano;fill:#000000;fill-opacity:1"
         id="path4214" />
      <path
         d="m 484.63192,938.26708 q 0.1002,1.10221 0.1002,2.10422 0,1.00201 0,2.10422 0,10.82171 -3.00603,22.24462 -2.90583,11.42292 -8.31668,21.74362 -5.41086,10.2205 -13.12633,18.63734 -7.71548,8.3167 -17.23458,13.0262 -5.61125,2.7054 -12.12432,4.008 -6.51306,1.3026 -13.12633,1.3026 -4.80965,0 -9.51909,-0.7014 -4.60925,-0.7014 -8.81769,-1.8036 -9.4189,-2.7054 -16.93397,-8.3167 -7.41488,-5.7114 -12.72553,-13.12631 -5.31065,-7.41487 -8.41688,-15.93196 -3.00603,-8.61728 -3.50704,-17.03417 -0.1002,-1.20241 -0.2004,-2.40482 0,-1.20241 0,-2.40483 0,-9.31869 2.30462,-18.53718 2.30462,-9.3187 6.21246,-17.73558 4.00804,-8.51709 9.2185,-15.93196 5.31065,-7.41487 11.22251,-13.02613 6.01206,-5.61126 12.22452,-9.11829 6.31266,-3.60724 12.32472,-4.50905 0.80161,-0.1002 1.00201,-0.1002 0.30061,-0.1002 0.40081,-0.1002 0.1002,0 0.2004,0.1002 0.1002,0 0.50101,-0.1002 2.30462,-0.2004 3.30663,-0.1002 1.00201,0.1002 1.20241,0.3006 0.2004,0.30061 -0.1002,0.40081 -0.2004,0.1002 -0.70141,0.4008 -0.2004,0 -0.501,0.1002 -0.2004,0.1002 0,0.30061 0.2004,0.501 -0.40081,0.9018 -0.6012,0.40081 -0.8016,0.60121 -0.20041,0.2004 -0.10021,0.3006 0.10021,0.1002 0.10021,0.1002 0.1002,0 0,0.10021 0,0.1002 -0.40081,0.3006 -1.20241,0.80161 -2.60522,1.50301 -1.30262,0.60121 -2.70543,1.50302 -7.21447,5.21045 -12.72553,13.42693 -5.51105,8.21649 -9.21849,18.13639 -3.70744,9.91989 -5.61126,20.942 -1.90382,10.92191 -1.90382,21.64342 0,1.40282 0,2.80563 0,1.30261 0.1002,2.70543 0.20041,4.30864 1.40282,9.41889 1.20241,5.11025 3.20643,10.2205 2.10422,5.01005 5.01005,9.7195 3.00603,4.70942 6.81367,8.41692 3.80764,3.6072 8.51708,5.9118 4.70945,2.2044 10.32071,2.3046 8.41688,0.3007 15.13035,-2.7054 6.71347,-3.006 11.82372,-8.0161 5.21045,-5.11021 8.91789,-11.62328 3.70743,-6.61326 6.11226,-13.52713 2.50502,-7.01407 3.90784,-13.72754 1.40281,-6.81367 1.90382,-12.22452 0.2004,-2.10422 0.3006,-4.20844 0.1002,-2.20443 0.1002,-4.20845 0,-12.82572 -3.40683,-22.84582 -3.30664,-10.02011 -8.91789,-16.93397 -5.51106,-6.91387 -12.72553,-10.62131 -7.21447,-3.80764 -14.92995,-4.10824 -0.80161,-0.1002 -1.90382,0 -1.10221,0 -2.30462,0 -1.10221,0 -2.00402,0.1002 -0.80161,0 -1.00201,-0.1002 -1.30262,-0.60121 -1.60322,-0.90181 l -0.2004,-0.2004 q 0,-0.80161 0.4008,-1.20242 l 1.00201,-0.501 q 0.50101,-0.2004 0.90181,-0.4008 0.50101,-0.30061 0.80161,-0.50101 0.2004,-0.3006 -0.1002,-0.4008 -0.3006,-0.20041 -0.3006,-0.90181 -0.20041,-0.50101 0.3006,-0.90181 0.501,-0.50101 0.70141,-0.50101 0.90181,-0.3006 1.20241,-0.3006 0.4008,-0.1002 1.00201,-0.1002 1.00201,-0.1002 1.60321,-0.2004 0.70141,-0.2004 1.20242,-0.40081 0.6012,-0.2004 1.30261,-0.3006 0.70141,-0.2004 1.90382,-0.3006 0.90181,-0.2004 2.00402,-0.2004 1.10221,0 3.30663,-0.20041 8.61729,-0.2004 15.73156,2.00402 7.21447,2.10422 12.92593,6.11227 5.81166,4.00804 10.1203,9.51909 4.30864,5.41085 7.21447,11.82372 3.00603,6.31266 4.60925,13.22653 1.70342,6.91387 2.10422,13.72754 z"
         style="font-style:normal;font-variant:normal;font-weight:normal;font-stretch:normal;font-family:Oregano;-inkscape-font-specification:Oregano;fill:#000000;fill-opacity:1"
         id="path4216" />
    </g>
    <path
       style="fill:#000000;fill-opacity:1"
       d="m 300.89968,855.38443 21.1826,-65.09774 21.1826,65.09774 -55.28142,-40.2986 68.71428,0"
       id="path4271"
       inkscape:connector-curvature="0" />
  </g>
</svg>
